<svg xmlns="http://www.w3.org/2000/svg" xmlns:xlink="http://www.w3.org/1999/xlink" width="462.771" height="202.487" viewBox="0 0 462.771 202.487"><defs><clipPath id="a"><rect width="227.274" height="89.982" fill="none"/></clipPath></defs><g transform="translate(-329.574 -270.863)"><path d="M36.028,0,0,202.486H462.771V0Z" transform="translate(329.574 270.863)" fill="#f15b43"/><g transform="translate(391.599 322.626)"><g transform="translate(0 0)" clip-path="url(#a)"><path d="M34.6,9.2l-8.25,2.731C25.678,9.31,24.619,8.585,23,8.585c-2.732,0-3.958,1.338-4.46,5.24L17.149,24.139a10.64,10.64,0,0,0-.113,1.282c0,2.565,1.227,3.512,3.234,3.512a3.07,3.07,0,0,0,2.509-1.059l.558-3.958H20.66l.781-6.635h12.1l-2.4,19.791H22.389l.223-1.448a11.835,11.835,0,0,1-6.578,1.95c-5.854,0-9.98-3.233-9.98-10.536a23.879,23.879,0,0,1,.167-2.732L7.615,13.77C8.73,5.351,13.636,0,23.113,0,29.636,0,34.1,3.456,34.6,9.2" transform="translate(0.834 -0.001)" fill="#fff"/><path d="M41.832,23.862l-.167,1.561a11.083,11.083,0,0,0-.112,1.227c0,1.951.781,2.676,2.453,2.676,1.45,0,2.342-.837,3.289-2.9l7.08,2.453c-2.342,5.241-6.077,7.8-12.488,7.8-7.025,0-10.648-4.07-10.648-9.365a13.67,13.67,0,0,1,.112-1.505l1.115-8.195C33.246,12.044,37.484,6.86,45.623,6.86c6.857,0,10.09,4.236,10.09,9.533,0,.558-.056,1-.112,1.616l-.781,5.854Zm.725-5.407h3.9l.222-1.505a6.632,6.632,0,0,0,.057-1c0-1.45-.558-1.9-1.617-1.9-1.505,0-2.007.669-2.342,2.9Z" transform="translate(4.306 0.945)" fill="#fff"/><path d="M71.13,16.312H66.391L65.109,26.794c-.055.39-.11.835-.11,1,0,1.282.779,2.117,2.4,2.117a8.94,8.94,0,0,0,1.617-.166l-.11,6.075a15.128,15.128,0,0,1-6.3,1.339c-5.687,0-7.861-2.622-7.861-7.638a23.2,23.2,0,0,1,.167-2.675l1.282-10.09-2.508-1.116.724-6.522,3.4-.335,3.289-5.8h6.968l-.779,6.077h4.682Z" transform="translate(7.399 0.411)" fill="#fff"/><path d="M90.537,10.189h.112a11.267,11.267,0,0,1,6.913-2.452c4.348,0,6.578,2.565,6.578,8.028a17.852,17.852,0,0,1-.167,2.9l-1,6.8c-1.115,7.75-4.626,11.875-10.592,11.875a8.021,8.021,0,0,1-5.8-2.063l-.5,1.728H77.1L81.562.489H91.82Zm-.892,7.694L88.252,29.255a3.233,3.233,0,0,0,1.84.558c1.394,0,2.174-1.115,2.62-4.349l.892-6.355a9.046,9.046,0,0,0,.111-1.617c0-1.45-.446-1.671-1.282-1.671a3.747,3.747,0,0,0-2.788,2.062" transform="translate(10.626 0.067)" fill="#fff"/><path d="M112.1,23.862l-.167,1.561a11.083,11.083,0,0,0-.112,1.227c0,1.951.781,2.676,2.453,2.676,1.45,0,2.342-.837,3.289-2.9l7.08,2.453c-2.342,5.241-6.077,7.8-12.488,7.8-7.025,0-10.648-4.07-10.648-9.365a13.671,13.671,0,0,1,.112-1.505l1.115-8.195c.779-5.575,5.018-10.759,13.157-10.759,6.857,0,10.09,4.236,10.09,9.533,0,.558-.056,1-.112,1.616l-.781,5.854Zm.725-5.407h3.9l.222-1.505a6.63,6.63,0,0,0,.057-1c0-1.45-.558-1.9-1.617-1.9-1.505,0-2.007.669-2.342,2.9Z" transform="translate(13.989 0.945)" fill="#fff"/><path d="M141.444,16.312H136.7l-1.282,10.482c-.056.39-.111.835-.111,1,0,1.282.781,2.117,2.4,2.117a8.939,8.939,0,0,0,1.617-.166l-.111,6.075a15.124,15.124,0,0,1-6.3,1.339c-5.686,0-7.86-2.622-7.86-7.638a22.944,22.944,0,0,1,.167-2.675l1.282-10.09-2.509-1.116.725-6.522,3.4-.335,3.289-5.8h6.969L137.6,9.065h4.683Z" transform="translate(17.089 0.411)" fill="#fff"/><path d="M157.516,16.312h-4.739l-1.282,10.482c-.056.39-.112.835-.112,1,0,1.282.781,2.117,2.4,2.117a8.939,8.939,0,0,0,1.617-.166l-.111,6.075a15.119,15.119,0,0,1-6.3,1.339c-5.687,0-7.861-2.622-7.861-7.638a23.2,23.2,0,0,1,.167-2.675l1.282-10.09-2.509-1.116.725-6.522,3.4-.335,3.289-5.8h6.969l-.782,6.077h4.683Z" transform="translate(19.304 0.411)" fill="#fff"/><path d="M165.994,23.862l-.167,1.561a11.078,11.078,0,0,0-.111,1.227c0,1.951.781,2.676,2.453,2.676,1.45,0,2.342-.837,3.289-2.9l7.081,2.453c-2.343,5.241-6.077,7.8-12.489,7.8-7.025,0-10.648-4.07-10.648-9.365a13.67,13.67,0,0,1,.112-1.505l1.115-8.195c.779-5.575,5.018-10.759,13.157-10.759,6.858,0,10.09,4.236,10.09,9.533,0,.558-.055,1-.111,1.616l-.781,5.854Zm.725-5.407h3.9l.223-1.505a6.767,6.767,0,0,0,.056-1c0-1.45-.558-1.9-1.617-1.9-1.505,0-2.007.669-2.342,2.9Z" transform="translate(21.418 0.945)" fill="#fff"/><path d="M196.816,16.768a4.029,4.029,0,0,0-2.343-.725c-2.34,0-4.013,1.951-5.24,6.69l-1.673,13.38H177.3L180.815,7.4h8.866l-.224,4.572h.111c2.063-3.735,4.014-5.018,6.522-5.018a4.41,4.41,0,0,1,2.565.669Z" transform="translate(24.436 0.958)" fill="#fff"/><path d="M193.337,25.723h7.415l-.893,7.8h-7.414Z" transform="translate(26.523 3.545)" fill="#fff"/><path d="M18.007,46.5c7.749,0,12.042,4.293,12.042,11.095a13.837,13.837,0,0,1-.112,2.117L28.6,69.582c-1.115,8.082-6.522,13.434-15.052,13.434H0L4.46,46.5Zm1.059,11.317c0-2.062-.613-2.565-2.063-2.565h-2.62l-2.452,19.29h2.564c1.951,0,2.565-.836,3.178-5.24L18.9,60.271a22.544,22.544,0,0,0,.167-2.453" transform="translate(0 6.408)" fill="#fff"/><path d="M51.526,71.992c-.725,5.631-5.351,10.7-13.714,10.7-7.693,0-11.205-4.237-11.205-9.311a11.738,11.738,0,0,1,.112-1.394l1.115-8.362c.725-5.63,5.3-10.759,13.658-10.759,7.86,0,11.205,4.181,11.205,9.309a12.622,12.622,0,0,1-.056,1.451Zm-14.495-.5a11.817,11.817,0,0,0-.112,1.338c0,1.9.669,2.509,1.784,2.509,1.505,0,2.119-.892,2.565-3.847l1.059-7.359c.056-.556.112-1,.112-1.448,0-1.84-.613-2.453-1.84-2.453-1.505,0-2.119.781-2.509,3.735Z" transform="translate(3.667 7.286)" fill="#fff"/><path d="M84.105,64.41l-2.23,17.728h-10.2l2.119-17.672c.056-.726.167-1.282.167-1.729,0-1.393-.446-1.617-1.227-1.617a2.928,2.928,0,0,0-2.063,1.338l-2.4,19.68H58.015l3.512-28.711h9.087l-.223,2.453H70.5a9.976,9.976,0,0,1,6.968-3.011,5.572,5.572,0,0,1,5.464,4.181,10.874,10.874,0,0,1,8.2-4.181c4.18,0,6.857,2.676,6.857,8.363a19.418,19.418,0,0,1-.167,2.452L95.478,82.138h-10.2L87.45,64.467c.056-.613.112-1.171.112-1.561,0-1.506-.446-1.785-1.227-1.785-.892,0-1.951,1-2.23,3.289" transform="translate(7.996 7.286)" fill="#fff"/><path d="M119.1,71.992c-.725,5.631-5.351,10.7-13.714,10.7-7.693,0-11.205-4.237-11.205-9.311a11.737,11.737,0,0,1,.111-1.394L95.4,63.63c.725-5.63,5.3-10.759,13.658-10.759,7.86,0,11.205,4.181,11.205,9.309a12.624,12.624,0,0,1-.056,1.451Zm-14.495-.5a11.816,11.816,0,0,0-.111,1.338c0,1.9.669,2.509,1.784,2.509,1.505,0,2.119-.892,2.565-3.847l1.059-7.359c.056-.556.112-1,.112-1.448,0-1.84-.613-2.453-1.84-2.453-1.505,0-2.119.781-2.509,3.735Z" transform="translate(12.98 7.286)" fill="#fff"/><path d="M137.061,62.779a4.029,4.029,0,0,0-2.343-.725c-2.341,0-4.013,1.951-5.24,6.69l-1.673,13.38H117.549l3.511-28.711h8.865l-.223,4.572h.111c2.063-3.735,4.014-5.018,6.522-5.018a4.41,4.41,0,0,1,2.565.669Z" transform="translate(16.201 7.3)" fill="#fff"/><path d="M145.584,69.873l-.167,1.561a11.055,11.055,0,0,0-.11,1.227c0,1.951.779,2.676,2.452,2.676,1.45,0,2.342-.837,3.291-2.9l7.08,2.453c-2.342,5.241-6.076,7.8-12.489,7.8-7.025,0-10.648-4.07-10.648-9.365a13.959,13.959,0,0,1,.111-1.505l1.115-8.195c.779-5.575,5.018-10.759,13.157-10.759,6.859,0,10.09,4.236,10.09,9.533,0,.558-.053,1-.11,1.616l-.782,5.854Zm.726-5.407h3.9l.223-1.505a6.763,6.763,0,0,0,.056-1c0-1.45-.556-1.9-1.616-1.9-1.505,0-2.008.669-2.342,2.9Z" transform="translate(18.605 7.286)" fill="#fff"/><path d="M157.64,71.734h7.415l-.893,7.8h-7.414Z" transform="translate(21.603 9.886)" fill="#fff"/></g></g></g></svg>