<svg xmlns="http://www.w3.org/2000/svg" xmlns:xlink="http://www.w3.org/1999/xlink" width="121.607" height="82.771" viewBox="0 0 121.607 82.771"><defs><clipPath id="a"><rect width="121.607" height="82.771" transform="translate(0 0)" fill="none"/></clipPath></defs><g transform="translate(0 0)"><g clip-path="url(#a)"><path d="M23.739,0h97.867L109.651,70.795A15.1,15.1,0,0,1,94.873,82.771H0L12.575,9.047A11.412,11.412,0,0,1,23.739,0" fill="#f15b43"/><path d="M72.491,40.976,69.376,60.26a.944.944,0,0,1-1.016.9H62.91c-.6,0-.779-.3-.718-.9l2.695-17.007c1.377-8.863.058-9.283-5.153-9.283a37.725,37.725,0,0,0-5.987.479,25.668,25.668,0,0,1-.3,7.484L50.454,60.26c-.119.66-.42.9-.96.9H43.986c-.6,0-.838-.3-.718-.9l2.872-18.2c1.2-7.727-.239-8.028-5.327-8.028H35.722L31.588,60.26a1,1,0,0,1-1.077.9h-5.45c-.6,0-.779-.3-.718-.9l4.388-28.389a4.578,4.578,0,0,1,3.748-3.51,39.373,39.373,0,0,1,8.573-.617,24.649,24.649,0,0,1,10,1.8,35.427,35.427,0,0,1,10.36-1.856c9.881,0,12.935,1.976,11.078,13.292" fill="#fff"/><path d="M92.385,18.879c.718-.18.957.18.838.838L91.9,28.1h5.929c.66,0,.9.3.841.9l-.66,3.773a.947.947,0,0,1-1.077.957H91.007L88.132,51.995c-.421,2.636.3,3.173,3.234,3.173H94c.66,0,.961.242.9.841l-.6,3.952a1.333,1.333,0,0,1-1.139,1.078,27.505,27.505,0,0,1-4.311.42c-4.671,0-9.461-.12-8.325-7.307L83.759,33.73H78.41c-.66,0-.9-.3-.838-.957L78.17,29a.965.965,0,0,1,1.077-.9h5.411l1.077-6.888a1.084,1.084,0,0,1,.961-.957Z" fill="#fff"/></g></g></svg>